<svg xmlns="http://www.w3.org/2000/svg" viewBox="0 0 1600 1000" role="img" aria-label="Mountain travel landscape">
  <defs>
    <linearGradient id="sky" x1="0" y1="0" x2="0" y2="1">
      <stop offset="0" stop-color="#7db7ff"/>
      <stop offset="0.55" stop-color="#ffd6a0"/>
      <stop offset="1" stop-color="#f7efe4"/>
    </linearGradient>
    <linearGradient id="mountain" x1="0" y1="0" x2="1" y2="1">
      <stop offset="0" stop-color="#1f4f67"/>
      <stop offset="1" stop-color="#0d2f35"/>
    </linearGradient>
    <linearGradient id="hill" x1="0" y1="0" x2="1" y2="1">
      <stop offset="0" stop-color="#54a66c"/>
      <stop offset="1" stop-color="#176047"/>
    </linearGradient>
  </defs>
  <rect width="1600" height="1000" fill="url(#sky)"/>
  <circle cx="1280" cy="190" r="105" fill="#fff0a8"/>
  <path d="M0 670 250 330 430 610 630 260 900 650 1120 390 1600 690 1600 1000 0 1000Z" fill="url(#mountain)"/>
  <path d="M250 330 355 500 430 610 315 540Z" fill="#eaf7ff" opacity=".9"/>
  <path d="M630 260 750 432 900 650 720 505Z" fill="#eef9ff" opacity=".9"/>
  <path d="M1120 390 1230 520 1600 690 1295 570Z" fill="#eaf7ff" opacity=".8"/>
  <path d="M0 760 C230 650 430 690 630 745 C850 805 1080 705 1600 780 L1600 1000 L0 1000Z" fill="url(#hill)"/>
  <path d="M0 865 C260 780 530 820 780 890 C1030 960 1270 830 1600 865 L1600 1000 L0 1000Z" fill="#0f4f3c"/>
  <path d="M1080 775 C1160 720 1250 720 1320 775 L1390 910 L1010 910Z" fill="#f2faf4"/>
  <path d="M1118 790 L1295 790 L1340 890 L1065 890Z" fill="#e46b3f"/>
  <path d="M1135 825 L1220 825 L1220 890 L1135 890Z" fill="#5c3426"/>
  <path d="M450 720 C505 650 580 650 630 720" fill="none" stroke="#ffffff" stroke-width="14" stroke-linecap="round" opacity=".65"/>
  <path d="M510 720 C550 690 585 690 620 720" fill="none" stroke="#ffffff" stroke-width="10" stroke-linecap="round" opacity=".55"/>
</svg>
